<?xml version="1.0" encoding="UTF-8" standalone="no"?>
<!DOCTYPE svg PUBLIC "-//W3C//DTD SVG 1.1//EN" "http://www.w3.org/Graphics/SVG/1.1/DTD/svg11.dtd">
<svg width="100%" height="100%" viewBox="0 0 100 100" version="1.1" xmlns="http://www.w3.org/2000/svg" xmlns:xlink="http://www.w3.org/1999/xlink" xml:space="preserve" xmlns:serif="http://www.serif.com/" style="fill-rule:evenodd;clip-rule:evenodd;stroke-linecap:round;stroke-linejoin:round;stroke-miterlimit:1.5;">
    <g transform="matrix(1,0,0,1.00155,-0.154799,0)">
        <path d="M50.155,0L100.155,49.923L50.155,99.845L0.155,49.923L50.155,0Z" style="stroke:white;stroke-width:1px;"/>
    </g>
    <g transform="matrix(1,0,0,1,1.81889,1.70279)">
        <path d="M48.181,2.399L58.746,23.529L37.616,23.529L48.181,2.399Z" style="fill:white;"/>
    </g>
    <g transform="matrix(-1,1.22465e-16,-1.22465e-16,-1,98.1811,98.839)">
        <path d="M48.181,2.399L58.746,23.529L37.616,23.529L48.181,2.399Z" style="fill:white;"/>
    </g>
    <g transform="matrix(6.12323e-17,-1,1,6.12323e-17,0.657895,98.1811)">
        <path d="M48.181,2.399L58.746,23.529L37.616,23.529L48.181,2.399Z" style="fill:white;"/>
    </g>
    <g transform="matrix(6.12323e-17,1,-1,6.12323e-17,98.2585,1.81889)">
        <path d="M48.181,2.399L58.746,23.529L37.616,23.529L48.181,2.399Z" style="fill:white;"/>
    </g>
</svg>
